<svg width="55" height="55" viewBox="0 0 55 55" fill="none" xmlns="http://www.w3.org/2000/svg">
  <circle cx="27.5" cy="27.5" r="27.5" fill="#1A1C22"/>
  
  <g transform="translate(14, 14) scale(0.65)">
    <path d="M21 2V5M21 37V40M40 21H37M5 21H2M34.4 7.6L32.3 9.7M9.7 32.3L7.6 34.4M34.4 34.4L32.3 32.3M9.7 9.7L7.6 7.6" stroke="#FFE699" stroke-width="2" stroke-linecap="round"/>
    <path d="M21 11C15.4772 11 11 15.4772 11 21C11 26.5228 15.4772 31 21 31C26.5228 31 31 26.5228 31 21C31 15.4772 26.5228 11 21 11Z" fill="#FFE699" fill-opacity="0.2" stroke="#FFE699" stroke-width="2"/>
    <path d="M18 21L21 24L26 19" stroke="#FFE699" stroke-width="2" stroke-linecap="round" stroke-linejoin="round"/>
  </g>

  <circle cx="27.5" cy="27.5" r="27" stroke="#FFE699" stroke-width="1"/>
</svg>